<?xml version="1.0" encoding="iso-8859-1"?>
<!-- Generator: Adobe Illustrator 16.0.0, SVG Export Plug-In . SVG Version: 6.00 Build 0)  -->
<!DOCTYPE svg PUBLIC "-//W3C//DTD SVG 1.1//EN" "http://www.w3.org/Graphics/SVG/1.1/DTD/svg11.dtd">
<svg version="1.1" id="Capa_1" xmlns="http://www.w3.org/2000/svg" xmlns:xlink="http://www.w3.org/1999/xlink" x="0px" y="0px"
	 width="258.021px" height="258.021px" viewBox="0 0 258.021 258.021" style="enable-background:new 0 0 258.021 258.021;"
	 xml:space="preserve">
<g>
	<g id="_x31_25_3_">
		<g>
			<path d="M0,171.09h40.746v15.427h30.747V171.09h42.14V96.162H0V171.09z M11.517,107.684h90.604v51.895H11.517V107.684z"/>
			<rect x="24.194" y="186.812" width="63.845" height="3.168"/>
			<polygon points="139.705,103.545 124.697,116.456 139.705,128.15 139.705,118.957 162.81,118.957 162.81,112.733 
				139.705,112.733 			"/>
			<polygon points="147.805,144.278 124.697,144.278 124.697,150.493 147.805,150.493 147.805,159.685 162.81,146.776 
				147.805,135.082 			"/>
			<path d="M217.951,84.777c7.938,0.117,40.065-0.32,40.065-11.979c0-11.799-32.118-11.867-40.065-11.981
				c-7.946,0.109-40.06,0.183-40.06,11.981S210.005,84.67,217.951,84.777z"/>
			<path d="M217.896,89.307c-6.937-0.109-30.62-0.203-40.004-7.731V99.81v14.769l0.051-31.396l0.051,31.636h0.203
				c9.587,7.294,32.839,7.383,39.699,7.492c6.835,0.114,30.041-0.208,39.664-7.492c0,0,0.411-0.348,0.462-0.386l-0.111-32.898
				C248.521,89.088,224.822,89.428,217.896,89.307z"/>
			<path d="M217.896,127.203c-6.937-0.109-30.62-0.203-40.004-7.736v18.235v14.767l0.051-31.395l0.051,31.633h0.203
				c9.587,7.298,32.839,7.384,39.699,7.495c6.835,0.112,30.041-0.208,39.664-7.495c0,0,0.411-0.345,0.462-0.386l-0.111-32.897
				C248.521,126.985,224.822,127.317,217.896,127.203z"/>
			<path d="M217.896,164.194c-6.937-0.112-30.62-0.203-40.004-7.739v18.24v14.767l0.051-31.402l0.051,31.641h0.203
				c9.587,7.297,32.839,7.379,39.699,7.49c6.835,0.111,30.041-0.213,39.664-7.49c0,0,0.411-0.35,0.462-0.391l-0.111-32.896
				C248.521,163.971,224.822,164.311,217.896,164.194z"/>
		</g>
	</g>
</g>
<g>
</g>
<g>
</g>
<g>
</g>
<g>
</g>
<g>
</g>
<g>
</g>
<g>
</g>
<g>
</g>
<g>
</g>
<g>
</g>
<g>
</g>
<g>
</g>
<g>
</g>
<g>
</g>
<g>
</g>
</svg>
